<svg xmlns="http://www.w3.org/2000/svg" width="160" height="51" fill="none" viewBox="0 0 160 51"><path fill="#E40712" d="M71.5757 15.0722C71.5757 14.8344 71.6153 14.438 71.6946 13.764C71.7739 13.0901 72.21 11.108 73.9543 9.99797C73.875 9.99797 73.7561 9.95833 73.6768 9.95833C73.4389 9.95833 72.7253 9.91868 71.7343 10.2755C72.1307 9.68083 73.5975 8.68976 74.1525 8.41226C74.1921 8.37262 74.2714 8.33297 74.3111 8.33297C73.6768 6.31119 72.3289 4.64619 70.4261 3.65512C69.2368 3.02084 68.0079 2.7037 66.3429 2.66405H63.0129C60.3568 2.66405 59.1279 2.62441 58.1764 2.4262C57.3836 2.22798 56.67 1.79191 56.67 1.79191L56.4718 1.67299L56.5114 1.91084C56.5114 1.99013 56.7097 3.77405 58.8504 5.35976C59.2468 5.67691 59.5639 5.95441 59.5639 6.98512V16.5787C59.5639 17.6094 59.3657 17.8869 58.89 18.1644C58.3747 18.4815 57.3043 19.0762 57.3043 19.1158L56.9475 19.314H65.6293C68.0475 19.314 69.5936 18.9176 71.2189 17.8076C71.5361 17.6094 71.8136 17.3715 72.0514 17.1733C71.8928 15.9444 72.0911 14.8344 72.2496 14.2001C72.2496 14.1605 71.8136 14.5569 71.5757 15.0722ZM66.0257 15.2705H64.1625V6.70762H66.0257C68.4836 6.70762 69.8711 8.25369 69.8711 10.989C69.8711 13.7244 68.4836 15.2705 66.0257 15.2705ZM90.0889 17.4112C90.2475 17.094 90.3267 16.6976 90.3267 16.3012C90.3267 15.9047 90.2078 15.5083 90.0492 15.1912L90.525 15.2705C90.8421 15.3101 91.4367 15.7065 91.4367 16.3012C91.4367 17.0147 90.7232 17.3319 90.0889 17.4112ZM99.286 17.8076C97.621 18.9176 96.1146 19.314 93.6964 19.314H93.6171C94.0135 18.8383 94.2117 18.204 94.2117 17.5697C94.2117 16.658 93.7757 15.8255 93.0621 15.2705H94.0928C96.5507 15.2705 97.9382 13.7244 97.9382 10.989C97.9382 8.25369 96.5507 6.70762 94.0928 6.70762H92.2296V7.77798C91.9521 7.73833 91.7142 7.69869 91.4367 7.69869C91.0007 7.69869 90.4853 7.77797 90.3664 7.85726C90.8817 7.42119 91.4764 7.22298 91.8728 7.14369C90.1285 6.74726 88.5032 7.73833 88.2653 8.01583C88.4635 7.57976 88.86 7.18333 89.1375 6.90583C88.5825 7.10405 88.0671 7.38155 87.631 7.65905V6.94548C87.631 5.87512 87.3535 5.59762 86.9175 5.32012C84.7767 3.77405 84.5785 1.95048 84.5785 1.8712L84.5389 1.63334L84.7371 1.75227C84.7371 1.75227 85.4507 2.22798 86.2435 2.38656C87.1553 2.58477 88.4239 2.62441 91.08 2.62441H94.4099C96.0749 2.7037 97.3039 2.9812 98.4931 3.61548C101.189 5.00298 102.775 7.73833 102.775 10.9098C102.775 12.8523 102.14 14.7551 101.03 16.103C100.594 16.7769 99.9996 17.3319 99.286 17.8076ZM90.8817 14.5172C90.2871 14.5172 89.6528 14.6362 89.6528 14.6362C89.5339 14.5172 88.741 13.9226 88.3842 13.8433C89.0185 14.5172 88.8203 15.2308 88.6617 15.4687C88.5428 15.6669 88.305 15.7858 88.1067 15.7858C87.9482 15.7858 87.7896 15.7462 87.631 15.6272V11.7423C87.7896 11.544 87.9482 11.3062 88.1464 11.108C88.5825 10.5926 89.296 10.2755 90.0096 10.2755C90.4457 10.2755 90.8817 10.3944 91.1592 10.6323L91.3971 10.7908L91.5953 10.5926C91.7142 10.4737 91.9917 10.3548 92.2692 10.2358V14.7947C91.8332 14.5965 91.3971 14.5172 90.8817 14.5172ZM90.0889 9.12583C88.6221 8.92762 86.3625 9.91868 85.2128 11.3458C85.4507 10.3944 86.4814 8.84833 87.75 8.13476C87.75 8.13476 87.1157 8.92762 87.3932 9.04654C87.7896 9.24476 88.8203 7.6194 90.1682 7.57976C90.1682 7.57976 89.1771 8.05547 89.3753 8.41226C89.5339 8.65012 90.2078 8.09512 91.3574 8.09512C92.7846 8.09512 94.0532 8.96726 94.6478 9.64119C93.6567 9.36369 91.7935 9.8394 91.2385 10.3151C90.406 9.68083 88.7807 9.76011 87.8689 10.8305C86.7192 12.1387 86.0057 13.6847 85.8075 14.1605C85.411 13.8433 85.0542 13.5658 84.8164 13.3676C84.6182 13.209 84.42 13.1298 84.2217 13.0505C85.2921 11.544 87.5121 9.24476 90.0889 9.12583ZM74.6282 4.68584C74.4696 2.82263 75.3418 1.79191 75.7382 1.35584C76.6103 0.444059 77.7996 -0.0712973 79.5835 0.00798829C82.3585 0.166559 83.7064 2.06941 83.7064 4.0912C83.7064 5.16155 83.1514 6.58869 82.3585 7.50047C82.3189 7.46083 82.2396 7.38155 82.2 7.3419C81.6846 6.86619 80.9314 6.27155 80.4557 5.55798C81.4071 4.17048 81.0107 1.99013 79.306 1.99013C78.2357 1.99013 77.3636 3.10013 77.7203 4.44798C77.5618 5.04262 77.4825 5.83548 77.6014 6.43012C76.3725 5.79584 75.9761 4.96334 75.7382 4.21012C75.4211 4.84441 75.2228 5.71655 75.4607 6.54905C75.4607 6.62833 74.7471 5.99405 74.6282 4.68584ZM75.3418 8.05547C75.2228 8.49154 73.5975 8.96726 72.8046 9.76011C73.9939 9.52226 74.5489 9.72047 74.7471 10.1962C74.8661 10.553 74.7075 11.0287 74.6282 11.5837C75.0246 11.1476 76.3725 10.2358 77.3636 10.0376C77.1257 9.95833 76.531 9.8394 76.2932 9.8394C77.0068 9.0069 78.5925 8.7294 79.4646 8.92762C78.9096 8.88797 77.7996 9.20512 77.3636 9.5619C77.76 9.64119 78.1168 9.72047 78.4339 9.8394C77.9186 10.0376 77.2446 10.6719 77.0068 11.3458C77.6807 10.8701 79.0682 10.989 79.306 11.9801C79.4646 12.654 78.9889 13.2487 78.751 13.3676C78.9493 13.4073 79.425 13.3676 79.6232 13.2487C79.5439 13.5262 79.1475 14.0019 78.87 14.0812C79.5835 14.0812 80.6143 13.6055 80.8918 12.9315C80.8918 12.9315 80.4557 13.0901 80.2575 12.8919C80.0593 12.6937 80.3368 11.8215 80.3368 11.8215C80.3368 11.8215 80.0593 12.1783 79.8214 11.9801C79.5835 11.7423 79.9007 10.9494 80.0196 10.7908C79.7818 10.7115 79.1475 10.6323 78.87 10.6719C79.6628 10.3944 81.4468 10.2358 81.645 10.5926C81.8035 10.8701 81.4071 11.4251 81.4071 11.4251C81.7243 11.3855 82.636 11.4251 82.9532 11.7819C83.2703 12.1783 83.0721 12.6937 83.0721 12.6937C83.7857 12.3369 84.42 11.2269 84.2614 10.1169C84.1821 10.3548 83.865 10.7115 83.5478 10.7908C83.5875 10.434 83.31 10.2358 83.0721 10.1565C83.191 9.48261 82.9135 8.61047 81.9225 7.65905C81.09 6.82655 79.5043 5.71655 79.5835 4.24977C79.3457 4.56691 79.1475 5.47869 79.3853 5.99405C80.0593 6.78691 81.526 7.65905 81.8828 9.0069C81.2485 7.42119 78.1564 6.19226 78.2753 4.01191C77.8789 4.40834 77.6411 5.95441 77.9582 6.74726C78.5528 7.10405 79.0682 7.69869 79.1475 8.25369C78.5925 6.98512 76.3328 6.74726 75.6986 5.24084C75.54 5.79584 75.6193 6.46976 75.9364 6.90583C75.9364 6.90583 75.3814 6.70762 74.1921 6.74726C74.5886 6.90583 75.4211 7.6194 75.3418 8.05547ZM81.7639 9.87904C81.09 9.87904 80.8918 9.36369 80.7332 8.80869C81.526 9.12583 81.7639 9.87904 81.7639 9.87904ZM90.406 20.2258C90.8817 20.6619 92.0314 20.979 92.626 20.7015C92.2692 21.3358 90.6042 22.2079 89.0582 21.8115C87.5914 21.4151 86.9175 20.0276 86.9175 19.1158C86.2039 19.8294 86.4021 20.9394 86.9175 21.4151C86.3625 21.2565 85.4903 20.6619 85.3317 19.5915C85.2128 18.6797 85.7282 17.6094 84.7768 16.7769C84.2218 16.2615 83.31 15.548 82.755 15.1119C81.5657 14.2001 82.0018 13.4865 81.7639 13.0108C81.5657 12.6144 81.0503 12.4162 80.7728 12.0594C80.4557 11.7026 80.4953 11.1873 80.6539 10.9098C80.6143 11.3062 80.8918 11.6233 81.2882 11.7819C81.7243 11.9405 82.081 11.8215 82.4775 12.0198C82.9135 12.2973 82.7153 12.9712 83.0325 13.2487C83.31 13.4469 84.0632 13.1694 84.6578 13.6847C85.2921 14.2001 86.6796 15.3497 87.2742 15.8255C88.3446 16.6976 89.4546 15.7065 89.0978 14.6758C90.2078 15.3101 90.3267 17.1337 89.415 17.768C90.2871 17.9662 91.8332 17.5697 91.8332 16.3408C91.8332 15.5876 91.1196 15.0326 90.6439 14.9533C92.4278 14.7947 93.9739 16.0237 93.9739 17.6094C93.8946 19.1951 92.2692 20.4637 90.406 20.2258ZM84.4993 16.9751C84.5389 17.0147 84.5785 17.0544 84.6182 17.094C83.6667 19.0365 81.8828 21.534 78.4735 21.534C77.2446 21.534 76.1346 21.0979 75.3418 20.5033C75.0643 20.3051 74.8264 20.0672 74.6282 19.7897C74.5093 19.6312 74.3903 19.5122 74.2714 19.3537C74.1128 19.1555 73.9939 19.1555 73.9146 19.2744C73.7561 19.5122 74.0336 20.2655 74.0336 20.2655C71.3378 17.7283 72.7253 14.0019 72.765 13.8433C72.9236 13.3676 72.765 13.2883 72.6064 13.3676C72.3686 13.4469 72.0911 13.8433 72.0911 13.8433C72.2893 11.5837 74.3903 10.1962 74.3903 10.1962L74.43 10.2358C74.6678 10.5926 74.3111 11.0287 74.2714 12.4558C74.6678 11.9008 76.2139 10.8305 77.086 10.5133C76.8085 10.8701 76.5707 11.3855 76.5707 12.1387C76.5707 12.1387 77.205 11.4251 77.9978 11.4251C78.196 11.4251 78.3943 11.4648 78.5528 11.544C75.54 14.4776 76.8086 18.1247 79.3457 18.1247C80.7728 18.1247 82.2 16.539 82.7946 15.4687C83.2307 15.9047 83.9839 16.539 84.4993 16.9751Z"/><path fill="#fff" d="M88.5432 25.6569C81.5264 25.6569 74.47 30.4537 74.47 38.1047C74.47 46.0333 81.4867 50.2354 88.4639 50.2354C95.5203 50.2354 102.577 46.0729 102.577 38.1047C102.577 30.2554 95.5599 25.6569 88.5432 25.6569ZM88.4639 44.844C85.3717 44.844 81.566 42.5051 81.566 38.1047C81.566 33.5854 85.1339 31.1672 88.5035 31.1672C91.5957 31.1672 95.5203 33.3079 95.5203 38.184C95.5203 42.8222 91.5957 44.844 88.4639 44.844Z"/><path fill="#fff" d="M120.812 26.4101H130.525L128.701 28.4715V49.5615H123.429C122.438 46.4297 112.329 38.4218 111.417 35.8054H111.338V47.5397L113.161 49.5615H103.528L105.312 47.5V28.4715L103.489 26.3704H111.298C112.012 28.7094 121.13 35.409 122.477 38.9768H122.557V28.4715L120.812 26.4101Z"/><path fill="#fff" d="M144.241 25.8947C139.127 25.8947 134.33 26.2119 131.793 26.4101L133.617 28.4319V47.5397L131.793 49.5615C134.37 49.7597 139.444 50.0768 144.558 50.0768C154.984 50.0768 159.186 44.9629 159.186 37.9858C159.186 30.7311 153.438 25.8947 144.241 25.8947ZM144.479 44.8043C142.893 44.8043 141.466 44.725 140.514 44.6061V31.4051C141.585 31.2861 142.417 31.1672 144.162 31.1672C148.641 31.1672 152.09 33.0701 152.09 37.9065C152.09 42.5447 148.958 44.8043 144.479 44.8043Z"/><path fill="#fff" d="M65.9068 47.5001L67.6907 49.5218H57.1457L59.0486 47.5001L59.0089 42.7033L48.1072 26.4101H59.2072L57.6214 28.194L62.8146 37.3911H62.8939L67.9682 28.194L66.4618 26.4101H76.7689L65.8671 42.7826L65.9068 47.5001Z"/><path fill="#fff" d="M50.2875 44.289L46.799 49.5218H46.8386H26.7001L28.5236 47.5V28.4319L26.7001 26.4101L44.8961 26.3704V26.4101L48.3847 31.6033H35.4215V35.2901H44.6186L41.13 40.5229V40.5626L35.4215 40.5229V44.3286L50.2875 44.289Z"/><path fill="#fff" d="M24.1234 39.3733C23.2513 38.5408 22.1017 37.9065 20.5952 37.4704C21.1899 37.3118 21.7449 37.074 22.2602 36.7568C22.7756 36.4397 23.172 36.1226 23.5288 35.7261C23.8856 35.3297 24.1631 34.9333 24.3216 34.4972C24.5199 34.1008 24.5991 33.7044 24.5991 33.3079V32.5547C24.5991 31.6429 24.4009 30.7708 23.9649 30.0176C23.5288 29.2644 22.9341 28.5904 22.1413 28.0751C21.3484 27.5201 20.2384 27.1236 19.1284 26.8065C18.0184 26.529 16.7895 26.3704 15.4417 26.3704H4.73811H3.62811H1.56669L3.62811 28.5111V35.8054H0.813477L3.62811 39.4129V47.3811L1.56669 49.5218H3.62811H4.73811H16.1552C18.8906 49.5218 21.2692 49.0461 22.9341 48.055C24.5991 47.064 25.392 45.6368 25.392 43.6943V42.3861C25.392 41.1968 24.9559 40.2058 24.1234 39.3733ZM10.3674 30.6519H14.0938C15.1642 30.6519 16.0363 30.8104 16.7102 31.1276C17.3842 31.4447 17.7013 32.0394 17.7013 32.9115V33.6647C17.7013 34.3386 17.4634 34.854 16.9481 35.2504C16.4327 35.6469 15.7588 35.8451 14.8867 35.8451H10.3674V30.6519ZM18.4942 43.0204C18.4942 43.4961 18.4149 43.8925 18.2167 44.17C18.0184 44.4475 17.7806 44.6854 17.4634 44.8836C17.1463 45.0422 16.7895 45.1611 16.3534 45.2404C15.9174 45.28 15.4813 45.3197 15.0452 45.3197H10.3674V39.7301H15.0849C15.957 39.7301 16.7102 39.9283 17.4238 40.3247C18.0977 40.7211 18.4545 41.2365 18.4545 41.9104V43.0204H18.4942Z"/></svg>