<svg width="24" height="24" viewBox="0 0 24 24" xmlns="http://www.w3.org/2000/svg">
  <path fill-rule="evenodd" clip-rule="evenodd" d="M4.50008 8.79773C4.50008 13 11.9999 18.5001 11.9999 18.5001L10.8165 20.1124L10.8135 20.1102L10.8071 20.1055L10.7863 20.09C10.7688 20.0771 10.7445 20.059 10.7136 20.0358C10.6519 19.9894 10.5642 19.9228 10.4541 19.8376C10.2342 19.6675 9.92407 19.4227 9.55372 19.1165C8.81598 18.5066 7.82484 17.6415 6.82633 16.6295C5.83548 15.6252 4.79175 14.4306 3.98387 13.1591C3.19912 11.9241 2.50191 10.408 2.50008 8.80406C2.48461 5.84281 4.62406 3 8.00001 3C9.32028 3 10.3291 3.72349 10.9709 4.34969C11.3583 4.72759 11.7015 5.15622 12 5.58622C12.2986 5.15621 12.6418 4.72757 13.0292 4.34967C13.671 3.72355 14.6798 3 16 3C19.3531 3 21.5 5.76061 21.5 8.75003C21.5 9.8218 21.1937 10.8546 20.7574 11.7925L19.1795 10.3843C19.3835 9.82882 19.5 9.27972 19.5 8.75003C19.5 6.67894 18.0711 5 16 5C14.8606 5 13.8493 6.2824 13.1286 7.54828C12.4262 8.78198 11.9998 10 11.9998 10C11.9998 10 11.5736 8.78193 10.8713 7.5482C10.1507 6.28234 9.13956 5 8.00001 5C5.92795 5 4.48724 6.73617 4.50008 8.79773ZM12.9726 17.738C12.3815 18.2203 11.9999 18.5001 11.9999 18.5001C10.8172 20.1129 10.8169 20.1127 10.8165 20.1124L11.9999 20.9803L13.1833 20.1124L13.1842 20.1118L13.1864 20.1102L13.1928 20.1055L13.2137 20.09C13.2312 20.077 13.2556 20.0588 13.2864 20.0356C13.3482 19.9891 13.436 19.9224 13.5462 19.8372C13.7663 19.6669 14.0766 19.4217 14.4471 19.115C14.4589 19.1052 14.4707 19.0955 14.4825 19.0856L12.9726 17.738ZM11.9999 18.5001L13.1833 20.1124C13.183 20.1127 13.1827 20.1129 11.9999 18.5001Z"/>
  <path d="M16.5 11C16.2239 11 16 11.2239 16 11.5V14H13.5C13.2239 14 13 14.2239 13 14.5V15.5C13 15.7761 13.2239 16 13.5 16H16V18.5C16 18.7761 16.2239 19 16.5 19H17.5C17.7761 19 18 18.7761 18 18.5V16H20.5C20.7761 16 21 15.7761 21 15.5V14.5C21 14.2239 20.7761 14 20.5 14H18V11.5C18 11.2239 17.7761 11 17.5 11H16.5Z"/>
</svg>
