<svg width="24" height="24" viewBox="0 0 24 24" xmlns="http://www.w3.org/2000/svg">
  <path fill-rule="evenodd" clip-rule="evenodd" d="M20 3H10.5L12.5 5H22L20 3ZM20 7H14L16 9H22L20 7Z"/>
  <path fill-rule="evenodd" clip-rule="evenodd" d="M4.84269 11.0064C3.32433 9.38194 2.3907 7.29775 2.18939 5.08331L2 3L4.08331 3.18939C6.29775 3.3907 8.38194 4.32433 10.0064 5.84269L17.5563 12.8995L19.5 10.9558L20.3848 12.8995L16.8492 16.435L21.0919 20.6777L19.6777 22.0919L15.435 17.8492L11.8995 21.3848L9.95584 20.5L11.8995 18.5563L4.84269 11.0064ZM4 5C5.62604 5.21361 7.14487 5.92937 8.34468 7.04744L16.1421 14.3137L13.3137 17.1421L6.04744 9.34468C4.92937 8.14487 4.21361 6.62604 4 5Z"/>
</svg>
