<svg width="24" height="24" viewBox="0 0 24 24" xmlns="http://www.w3.org/2000/svg">
  <path fill-rule="evenodd" clip-rule="evenodd" d="M6.59086 8.00508L3 10L2 2L10 3L8.00508 6.59086L8.1189 6.70469C10.6037 4.64816 14.1604 3.58003 19.1905 3.09872C19.645 3.05524 20 2.67565 20 2.21909C20 2.09809 20.0981 2 20.2191 2H21.5714C21.8081 2 22 2.19188 22 2.42857C22 3.65241 21.1423 4.6383 20 4.97005V16V17.6L22 18V20H20V22H18L17.6 20H16H4.85577C4.36391 21.1597 3.30434 22 2 22V20C2.58032 20 3.06209 19.5528 3.11976 18.9754C3.61082 14.0588 4.67761 10.5681 6.70469 8.11891L6.59086 8.00508ZM8.15889 9.57311C6.5659 11.5494 5.66658 14.2809 5.22844 18H16V17.4142L8.15889 9.57311ZM17.4142 16H18V5.22844C14.2809 5.66658 11.5494 6.5659 9.5731 8.15889L17.4142 16ZM6 6L7 4.5L4 4L4.5 7L6 6Z"/>
</svg>
