<svg width="24" height="24" viewBox="0 0 24 24" xmlns="http://www.w3.org/2000/svg">
  <path d="M9.61525 15.937C10.4632 16.8956 11.3615 17.4529 12 17.7606V7.13922C10.9774 7.51522 9.55708 7.99834 8.34844 8.26068C7.91947 8.35379 7.45344 8.43295 6.98413 8.5C7.25964 12.374 8.52632 14.7059 9.61525 15.937Z"/>
  <path fill-rule="evenodd" clip-rule="evenodd" d="M12 19.921C12.755 19.6636 14.3894 18.9504 15.8828 17.262C17.4927 15.4419 19.108 12.2987 19.0697 6.86965C18.1367 6.78613 16.9954 6.65412 16.0758 6.45451C14.6972 6.15528 12.9475 5.51526 12 5.1505C11.0525 5.51526 9.3028 6.15528 7.92421 6.45451C7.00459 6.65412 5.86326 6.78613 4.93026 6.86965C4.89199 12.2987 6.50722 15.4419 8.11719 17.262C9.61058 18.9504 11.245 19.6636 12 19.921ZM12.3809 3.15255C12.1356 3.05592 11.8644 3.05592 11.6191 3.15255C10.8133 3.46997 8.89535 4.19715 7.49998 4.50002C6.19678 4.78289 4.29966 4.92348 3.44576 4.97551C3.19164 4.991 2.98622 5.20069 2.9728 5.45493C2.26639 18.8382 10.4565 21.5911 11.8116 21.9541C11.9392 21.9882 12.0608 21.9882 12.1883 21.9541C13.5435 21.5911 21.7336 18.8382 21.0272 5.45493C21.0138 5.20069 20.8083 4.991 20.5542 4.97551C19.7003 4.92348 17.8032 4.78289 16.5 4.50002C15.1046 4.19715 13.1867 3.46997 12.3809 3.15255Z"/>
</svg>
