<?xml version="1.0" encoding="UTF-8"?>
<svg id="Layer_2" data-name="Layer 2" xmlns="http://www.w3.org/2000/svg" xmlns:xlink="http://www.w3.org/1999/xlink" viewBox="0 0 586.69 194.18">
  <defs>
    <style>
      .cls-1 {
        fill: none;
      }

      .cls-2 {
        clip-path: url(#clippath);
      }

      .cls-3 {
        fill: #eb1c24;
      }

      .cls-4 {
        fill: #fff;
      }

      .cls-5 {
        clip-path: url(#clippath-1);
      }

      .cls-6 {
        clip-path: url(#clippath-4);
      }

      .cls-7 {
        clip-path: url(#clippath-3);
      }

      .cls-8 {
        clip-path: url(#clippath-2);
      }
    </style>
    <clipPath id="clippath">
      <polygon class="cls-1" points="148.73 15.71 11.69 15.57 11.69 128.38 148.73 128.52 148.73 15.71"/>
    </clipPath>
    <clipPath id="clippath-1">
      <path class="cls-1" d="M0,129.98s22.26-21.74,44.52-20.28c6.79-7.88,16.29-15.46,28.23-9.64,11.94,5.82-4.61,36.02-4.61,36.02l-29.6,6.36L0,129.98Z"/>
    </clipPath>
    <clipPath id="clippath-2">
      <path class="cls-1" d="M26.47,76.09s20.09-5.55,30.13-2.3c10.04,3.25-5.43-5.15-5.43-5.15,0,0,10.89-2.64,23.89,.95,12.99,3.59,3.66-12.46,3.66-12.46l-33.12-19.23-19.14,38.18Z"/>
    </clipPath>
    <clipPath id="clippath-3">
      <path class="cls-1" d="M84.61,88.07c13.02,3.33,22.24,6.8,22.24,6.8,0,0-6.83-15.31-21.07-21.74S19.27,60.25,19.27,60.25L26.47,0,111.02,.68l26.87,7.58,12.08,108.45,.81,15.3-32.03,7.99s-31.76-6.36-31.9-7.04-2.26-44.88-2.26-44.88Z"/>
    </clipPath>
    <clipPath id="clippath-4">
      <path class="cls-1" d="M84.61,88.07c13.02,3.33,22.24,6.8,22.24,6.8,0,0-6.83-15.31-21.07-21.74S19.27,60.25,19.27,60.25L26.47,0,111.02,.68l26.87,7.58,12.08,108.45,.81,15.3-32.03,7.99s-31.76-6.36-31.9-7.04-2.26-44.88-2.26-44.88Z"/>
    </clipPath>
  </defs>
  <g id="Layer_1-2" data-name="Layer 1">
    <g>
      <g>
        <path class="cls-4" d="M241.43,188.21v-1.48l2.21-.95v-32.11l-2.21-.95v-1.42c3.53-.16,8.59-.37,14.34-.37,13.92,0,19.66,6.54,19.66,18.4,0,10.86-5.32,19.3-20.09,19.3-4.74,0-10.75-.21-13.92-.42Zm13.92-5.75c7.91,0,11.97-5.17,11.97-13.18s-4.38-12.18-11.97-12.18c-1.58,0-2.9,.05-3.95,.11v25.15c1,.05,2.53,.11,3.95,.11Z"/>
        <path class="cls-4" d="M278.87,186.79l2.21-1v-32.11l-2.21-.95v-1.42h12.18v1.42l-2.21,.95v32.11l2.21,1v1.42h-12.18v-1.42Z"/>
        <path class="cls-4" d="M295.26,187.37l-1.32-9.54h1.74l1.32,2.85c1.69,.95,4.74,2.37,9.33,2.37,5.59,0,7.33-2.32,7.33-4.9,0-1.95-1.58-3.43-4.43-4.53l-5.96-2.32c-4.48-1.74-8.17-4.53-8.17-10.33,0-7.12,6.17-10.49,13.39-10.49,3.74,0,7.12,.58,10.12,1.53l.9,8.33h-1.53l-1.05-2.42c-1.9-1-4.59-1.53-7.7-1.53-4.9,0-6.33,2.16-6.33,3.9,0,1.63,1.11,2.79,4.01,3.9l6.33,2.42c4.48,1.74,8.33,4.85,8.33,11.07,0,7.17-5.43,11.39-14.66,11.39-3.8,0-7.96-.79-11.65-1.69Z"/>
        <path class="cls-4" d="M324.42,169.76c0-11.91,8.33-19.29,18.66-19.29,4.11,0,7.38,.58,9.54,1.37l1,8.75h-1.63l-1.11-2.37c-1.63-.74-3.9-1.37-7.59-1.37-6.48,0-10.97,4.01-10.97,12.86s5.06,12.97,11.23,12.97c3.53,0,6.12-.9,7.75-2.11l1.16-2.9h1.58l-.95,9.54c-2.48,.79-5.64,1.79-10.17,1.79-11.02,0-18.5-6.8-18.5-19.24Z"/>
        <path class="cls-4" d="M356.53,169.76c0-12.65,8.7-19.29,18.66-19.29s18.77,6.8,18.77,19.29-8.01,19.3-18.77,19.3c-10.12,0-18.66-6.85-18.66-19.3Zm18.66,12.92c5.75,0,10.65-4.48,10.65-12.92s-4.85-12.92-10.65-12.92-10.54,4.38-10.54,12.86,4.8,12.97,10.54,12.97Z"/>
        <path class="cls-4" d="M397.39,186.73l2.21-.95v-32.11l-2.21-.95v-1.42c3.74-.16,10.7-.42,13.5-.42,10.6,0,16.76,2.79,16.76,11.28,0,5.64-3.53,9.33-7.7,10.81,1.9,4.96,3.8,9.17,6.17,12.81l2.69,.95v1.48h-10.23c-2.48-4.69-4.59-9.96-5.75-13.81-.63,.05-1.11,.05-1.63,.05-1.26,0-2.58,0-3.85-.05v11.39l2.27,.95v1.48h-12.23v-1.48Zm14.55-18.45c5.59,0,8.07-2.37,8.07-5.85,0-3.69-2-5.38-8.49-5.38-1.21,0-3.22,.11-4.16,.16v10.97c1.11,.05,3.27,.11,4.59,.11Z"/>
        <path class="cls-4" d="M431.72,188.21v-1.48l2.21-.95v-32.11l-2.21-.95v-1.42c3.53-.16,8.59-.37,14.34-.37,13.92,0,19.66,6.54,19.66,18.4,0,10.86-5.32,19.3-20.09,19.3-4.74,0-10.75-.21-13.92-.42Zm13.92-5.75c7.91,0,11.97-5.17,11.97-13.18s-4.38-12.18-11.97-12.18c-1.58,0-2.9,.05-3.95,.11v25.15c1,.05,2.53,.11,3.95,.11Z"/>
        <path class="cls-4" d="M479.17,188.21v-1.48l2.21-.95v-32.05l-2.21-1v-1.42c3.85-.21,10.07-.37,13.5-.37,9.7,0,15.39,2.42,15.39,9.96,0,2.64-1.63,5.9-4.96,7.38v.21c3.74,1.32,6.64,4.06,6.64,8.91,0,6.64-4.96,11.23-16.76,11.23-4.32,0-9.7-.16-13.81-.42Zm14.71-22.62c4.43,0,6.33-1.95,6.33-4.22,0-2.9-2.21-4.27-7.01-4.27-1.21,0-3.22,.11-4.22,.16v8.28c1.26,.05,3.06,.05,4.9,.05Zm-.74,16.87c5.64,0,8.86-1.79,8.86-5.38s-3.64-5.27-8.44-5.27c-1.69,0-3.64,.11-4.59,.16v10.38c1.16,.05,3.06,.11,4.16,.11Z"/>
        <path class="cls-4" d="M512.75,169.76c0-12.65,8.7-19.29,18.66-19.29s18.77,6.8,18.77,19.29-8.01,19.3-18.77,19.3c-10.12,0-18.66-6.85-18.66-19.3Zm18.66,12.92c5.75,0,10.65-4.48,10.65-12.92s-4.85-12.92-10.65-12.92-10.54,4.38-10.54,12.86,4.8,12.97,10.54,12.97Z"/>
        <path class="cls-4" d="M562.73,186.73l2.16-1v-28.26h-10.54l-1,2.16h-1.63l1.05-8.33h32l1.05,8.33h-1.58l-.95-2.16h-10.65v28.26l2.27,1v1.48h-12.18v-1.48Z"/>
      </g>
      <g>
        <path class="cls-4" d="M23.53,186.73l2.16-1v-28.26H15.15l-1,2.16h-1.63l1.05-8.33H45.57l1.05,8.33h-1.58l-.95-2.16h-10.65v28.26l2.27,1v1.48h-12.18v-1.48Z"/>
        <path class="cls-4" d="M71.93,186.73l2.21-.95v-14.39l-7.75,1.63-7.01-1.63v14.39l2.21,.95v1.48h-12.18v-1.48l2.21-.95v-32.11l-2.21-.95v-1.42h12.18v1.42l-2.21,.95v11.55l7.01,1.63,7.75-1.63v-11.55l-2.21-.95v-1.42h12.18v1.42l-2.21,.95v32.11l2.21,.95v1.48h-12.18v-1.48Z"/>
        <path class="cls-4" d="M87.49,186.73l2.21-1v-32.05l-2.16-.95v-1.42h26.41l1.05,8.33-1.58,.05-1-2.21h-14.97v7.28h13.18l.69-1.95h1.37v10.17h-1.37l-.69-2.06h-13.18v11.07h15.34l.84-2.53h1.58l-1,8.75h-26.73v-1.48Z"/>
      </g>
      <g>
        <path class="cls-4" d="M147.11,178.81h-4.34v-19.89h4.34c5.69,0,8.96,3.64,8.96,9.98s-3.26,9.91-8.96,9.91m61-17.8v-1.07c-.69,.22-1.67,.57-2.1,.82,.72,0,1.42,.1,2.1,.25Zm-47.49,17.4l-1.21,1.69,.43-4.77c.35-3.88,2.74-6.68,4.4-8.2-.33,.03-.7,.08-1.1,.17l-4.27,.88,3.08-3.08c1.06-1.06,2.53-1.84,3.83-2.53,.15-.08,.3-.16,.46-.25-1.52-4.48-4.6-8.19-8.9-10.44-2.79-1.46-5.63-2.17-9.5-2.33v-.03h-7.77c-6.15,0-9.07-.08-11.2-.57-1.84-.43-3.49-1.49-3.51-1.5l-.47-.31,.05,.56c.01,.18,.43,4.35,5.42,7.98,.96,.7,1.63,1.38,1.63,3.82v22.31c0,2.39-.47,3.05-1.58,3.72-1.16,.7-3.66,2.17-3.66,2.17l-.86,.51h20.21c5.66,0,9.19-.95,13.03-3.51,.54-.36,1.03-.77,1.52-1.17-.28-1.73-.26-3.47-.03-5.12Zm38.69,.53c.24-.35,.29-.8,.14-1.23l-1.25-3.43,3.14,1.86c.3,.18,.57,.39,.82,.63l1.91-.14c1.44-.13,2.81,.08,4.04,.55v-9.77c-.7,.24-1.24,.51-1.49,.73l-.8,.73-.86-.66c-.56-.42-1.39-.67-2.28-.67-1.46,0-2.88,.63-3.8,1.68-.57,.65-1.08,1.32-1.55,1.99v7.75c.76,.58,1.56,.56,1.98-.03Zm23.37-27.06c-2.79-1.46-5.63-2.17-9.5-2.33v-.03h-7.77c-6.15,0-9.07-.08-11.2-.57-1.84-.43-3.49-1.49-3.51-1.5l-.47-.31,.05,.56c.01,.18,.44,4.35,5.42,7.98,.96,.7,1.64,1.38,1.64,3.82v1.61c1.06-.66,2.24-1.24,3.54-1.73-.44,.38-.97,.95-1.42,1.57,.86-.57,1.94-1.05,3.71-1.36,2.34-.41,4.04-.23,4.95-.06v-.61h4.34c5.69,0,8.96,3.64,8.96,9.98s-3.27,9.91-8.96,9.91h-1.7c1.5,1.37,2.44,3.25,2.44,5.33,0,1.5-.5,2.88-1.33,4.06,5.4-.05,8.86-1.01,12.59-3.5,1.63-1.1,3.02-2.38,4.15-3.8,2.56-3.2,4.03-7.61,4.03-12.11,0-7.32-3.73-13.64-9.97-16.91Z"/>
        <path class="cls-4" d="M167.1,154.21c-.4-4.34,1.67-6.74,2.6-7.69,2.05-2.09,4.82-3.36,8.9-3.14,6.44,.34,9.54,4.77,9.54,9.54,0,2.3-1.17,5.38-2.79,7.56-.1-.1-.18-.2-.28-.3-.32-.31-.69-.64-1.07-.99-1.06-.96-2.25-2.06-3.06-3.24,1.77-3.21,.76-7.76-2.97-7.76-2.18,0-4,2-3.85,4.66-.57,1.26-.85,3.08-.74,4.69-1.07-.67-1.97-1.41-2.4-2.43l-1.37-3.29-1.08,3.39c-.26,.81-.31,1.71-.19,2.58,0,0-.02,0-.02,0-.49-.74-1.06-1.91-1.21-3.57Zm-4.24,11.81c1.84-1.84,5.6-2.98,5.86-3.98,.25-.99-1.7-2.67-2.43-2.98,2.68-.11,4.01,.4,4.01,.4-.7-1.03-.93-2.61-.53-3.86,1.46,3.5,6.68,4.06,7.97,6.97-.19-1.25-1.37-2.66-2.74-3.48-.74-1.91-.19-5.42,.72-6.39-.32,5.05,6.89,7.94,8.39,11.61-.88-3.14-4.24-5.14-5.83-7.02-.53-1.25-.12-3.37,.45-4.09-.17,3.38,3.48,6.02,5.44,7.92,2.3,2.22,2.95,4.19,2.64,5.8,.5,.13,1.2,.62,1.08,1.45,.73-.17,1.48-1.01,1.66-1.53,.36,2.51-1.12,5.17-2.77,5.96,0,0,.45-1.2-.31-2.12-.74-.91-2.86-.91-3.57-.86,0,0,.88-1.3,.53-1.95-.43-.81-4.57-.46-6.41,.21,.63-.07,2.12,.1,2.64,.32-.29,.43-1.05,2.25-.5,2.8,.5,.5,1.16-.37,1.16-.37,0,0-.65,1.99-.18,2.45,.46,.46,1.45,.13,1.45,.13-.62,1.56-3.02,2.64-4.7,2.64,.6-.19,1.59-1.26,1.74-1.9-.44,.22-1.59,.35-2.03,.27,.54-.22,1.63-1.62,1.3-3.19-.5-2.29-3.7-2.59-5.31-1.48,.52-1.54,2.08-2.98,3.3-3.46-.71-.25-1.55-.46-2.44-.62,1.03-.84,3.59-1.52,4.91-1.45-2-.51-5.66,.13-7.34,2.11,.54,0,1.92,.26,2.45,.43-2.29,.42-5.42,2.55-6.34,3.56,.24-1.33,.61-2.45,.3-3.25-.44-1.13-1.81-1.6-4.53-1.04m20.79,.25s-.54-1.77-2.4-2.46c.36,1.28,.85,2.46,2.4,2.46m28.23,17.86c0-3.71-3.6-6.59-7.7-6.21,1.17,.2,2.81,1.44,2.81,3.22,0,2.9-3.62,3.79-5.62,3.34,2.12-1.47,1.84-5.71-.71-7.23,.86,2.38-1.73,4.74-4.25,2.67-1.4-1.15-4.65-3.85-6.09-5.02-1.44-1.16-3.14-.49-3.81-.99-.76-.58-.27-2.21-1.31-2.81-.87-.51-1.73-.22-2.74-.56-.92-.3-1.61-1.02-1.49-1.98-.39,.69-.42,1.89,.28,2.7,.69,.8,1.85,1.3,2.32,2.18,.62,1.14-.42,2.72,2.32,4.88,1.31,1.03,3.35,2.72,4.68,3.88,2.24,1.96,1.04,4.41,1.33,6.55,.34,2.49,2.35,3.88,3.68,4.23-1.15-1.05-1.59-3.68,.03-5.3,.08,2.09,1.59,5.35,5.02,6.26,3.65,.97,7.53-1.1,8.33-2.55-1.41,.64-4.06-.05-5.15-1.07,4.28,.61,8.07-2.36,8.07-6.17m-22.18-.96c-1.14-1-2.84-2.42-4.13-3.44-1.46,2.5-4.57,5.76-7.72,5.76-5.8,0-8.71-8.21-2.21-14.93-.38-.12-.75-.14-.88-.14-.56,0-1.1,.15-1.46,.4l-2.56,1.77,.58-3.26c.06-.17,.13-.34,.2-.51-1.48,.73-2.93,1.78-3.48,2.38l-2.52,2.76,.27-3.87c.06-.3,.12-.6,.18-.88,.13-.63,.3-1.4,.19-1.67-.03-.08-.1-.15-.18-.21-1.2,.93-4.49,3.84-4.88,8.12,0,0,.64-.9,1.19-1.11,.37-.14,.69,.04,.34,1.11-.13,.42-3.31,9.01,2.93,14.95,0,0-.68-1.75-.27-2.28,.2-.26,.46-.28,.82,.18,.27,.35,.55,.7,.85,1.04h0c.52,.59,1.09,1.14,1.7,1.62,1.87,1.31,4.4,2.36,7.29,2.36,7.72,0,11.81-5.32,14.08-9.79-.1-.12-.21-.23-.34-.34Zm13.3-18.62c-5.75,.28-10.71,5.18-13.24,8.62,.45,.15,.92,.36,1.37,.73,.53,.43,1.32,1.07,2.16,1.77,.67-1.48,2.21-4.56,4.59-7.29,2.14-2.46,5.89-2.69,7.85-1.2,1.27-1.14,5.62-2.22,7.92-1.56-1.4-1.52-4.37-3.56-7.65-3.56-2.71,0-4.24,1.33-4.62,.73-.5-.77,1.83-1.9,1.83-1.9-3.2,.13-5.52,3.89-6.49,3.42-.57-.28,.86-2.09,.86-2.09-2.92,1.7-5.37,5.29-5.88,7.49,2.69-3.29,7.91-5.65,11.31-5.16Zm.96,14.66c.6,.1,1.72,.86,1.72,1.94,0,.64-.3,1.15-.91,1.53-.27,.17-.59,.31-.93,.41,.18-.61,.27-1.28,.25-1.98-.04-1.23-.13-1.9-.13-1.9Z"/>
      </g>
      <path class="cls-4" d="M126.37,24.5l-7.91-4.19v-4.51h50.36v4.51l-7.91,4.19,27.28,73.42h.32l24.86-73.42-6.3-4.19v-4.51h46.97v4.51l-7.75,4.35-42.77,103.86h-34.86L126.37,24.5Z"/>
      <path class="cls-4" d="M240.25,123.69l8.88-5.15V25.63l-8.88-5.31v-4.51c12.59-.64,39.71-1.29,54.07-1.29,35.35,0,65.37,8.69,65.37,39.13,0,16.58-10.65,28.18-28.89,33.97,5,11.75,12.11,21.42,20.66,32.36l8.23,3.86v4.67h-42.77c-7.26-8.86-13.88-23.83-17.59-35.26-2.91,.32-5.65,.32-8.55,.32-2.58,0-5.33-.16-7.91-.32v25.28l8.88,5.15v4.83h-51.49v-4.83Zm56.82-52.81c17.59,0,28.25-3.86,28.25-15.62s-9.68-15.14-28.73-15.14c-4.68,0-10.81,.32-13.72,.48v29.63c4.04,.48,9.85,.64,14.2,.64Z"/>
      <path class="cls-4" d="M345.75,123.69l8.07-4.03,39.38-95.32-8.07-4.03v-4.51h47.45l42.61,104.18,7.59,3.7v4.83h-49.88v-4.83l7.59-3.86-2.74-6.76-25.18,5.15-21.79-5.15-2.26,6.76,6.3,3.86v4.83h-49.07v-4.83Zm66.82-28.34l16.3-4.83-16.79-42.67h-.32l-14.04,43.31,14.85,4.19Z"/>
      <path class="cls-4" d="M469.99,124.01l8.88-5.31V25.63l-8.88-5.15v-4.67h109.76l6.13,33.01h-5.81l-5.49-7.73h-61.98v17.87h41l4.04-6.76h5v38.64h-5l-4.04-6.76h-41v19.16h62.14l6.62-9.34h5.33l-6.62,34.62h-110.08v-4.51Z"/>
      <g class="cls-2">
        <path class="cls-4" d="M13.71,114.62c6.76-6.51,23.89-10.84,30.41-9.22,4.05-8.82,17.49-14.93,29.51-10.37,14.99,5.7,27.14,14.89,31.09,18.07,1.71-4.15,3.34-8.05,4.44-10.62,.89-2.07,2.08-3.68,3.39-4.95-14.84-7.46-42.45-16.35-63.81-6.28,10.87-8,33.4-9.47,48.86-3.03-5.84-6.65-21.02-14.6-34.34-15.07,0,0,8.38,3.64,6.89,5.67-2.49,3.4-17.55-5.33-28.9,.11,0,0,10.19-.38,9.88,3.19-.25,2.79-8.03,1.01-17.43,6.02-11.41,6.07-17.97,18.63-19.99,26.49"/>
        <g class="cls-5">
          <polyline class="cls-4" points="29.27 96.5 19.76 119.52 11.69 123.55 11.69 128.38 60.76 128.38 60.76 123.55 54.46 119.68 55.4 116.87 63.69 91.03 63.66 91.02"/>
        </g>
        <g class="cls-8">
          <polyline class="cls-4" points="49.42 47.72 29.27 96.5 63.66 91.02 65.98 83.86 65.98 83.85 65.98 83.85 74.18 58.56"/>
        </g>
        <g class="cls-7">
          <polyline class="cls-4" points="94.89 90.56 105.2 116.63 105.2 116.63 106.43 119.68 98.85 123.55 98.85 128.38 148.72 128.38 148.72 123.55 141.14 119.84 128.37 88.62"/>
          <g class="cls-6">
            <polyline class="cls-3" points="128.37 88.62 98.53 15.66 51.07 15.66 51.07 20.17 59.14 24.2 49.42 47.72 74.18 58.56 77.7 47.71 78.03 47.71 93.36 86.68 93.36 86.68 94.89 90.56"/>
          </g>
          <polyline class="cls-4" points="128.79 89.64 98.53 15.66 51.07 15.66 51.07 20.17 59.14 24.2 49.04 48.64 73.8 59.47 77.7 47.71 78.03 47.71 93.36 86.68 93.36 86.68 94.89 90.56"/>
        </g>
      </g>
    </g>
  </g>
</svg>