<svg width="24" height="24" viewBox="0 0 24 24" xmlns="http://www.w3.org/2000/svg">
  <path fill-rule="evenodd" clip-rule="evenodd" d="M4 8.16064L9 5.30349L13.7189 8H12.25C12.1119 8 12 8.11193 12 8.25V11.6923L10.2198 8.40583C10.1253 8.23126 9.87474 8.23126 9.78018 8.40583L6.16646 15.0773L4 13.8393V8.16064ZM5.21364 16.8364L2.25193 15.144C2.09614 15.0549 2 14.8893 2 14.7098V7.29015C2 7.11072 2.09614 6.94505 2.25193 6.85603L8.75193 3.14174C8.90565 3.05391 9.09435 3.05391 9.24807 3.14175L15.7481 6.85603C15.9039 6.94505 16 7.11072 16 7.29015V8H21.75C21.8881 8 22 8.11193 22 8.25V17.75C22 17.8881 21.8881 18 21.75 18H15.4167L16.3001 19.6309C16.3903 19.7975 16.2697 20 16.0803 20H3.91974C3.7303 20 3.60969 19.7975 3.69992 19.6309L5.21364 16.8364ZM14.3333 16H20V10H14V15.3846L14.3333 16ZM6.85789 18L10 12.1992L13.1421 18H6.85789Z"/>
</svg>
