<svg width="24" height="24" viewBox="0 0 24 24" xmlns="http://www.w3.org/2000/svg">
  <path fill-rule="evenodd" clip-rule="evenodd" d="M12.0149 3.36551C12.5699 3.83132 13.2771 4.53565 13.8533 5.47855C14.1654 5.98924 14.4092 6.66468 14.6018 7.32401C14.7993 8.00038 15 9.18673 15 10C15 10.0968 16.4391 8.08524 17.0223 4.62673C17.0367 4.54186 17.1445 4.5113 17.1996 4.57741C18.1011 5.65889 18.9726 6.71337 19.6349 7.97175C20.2988 9.23305 21 11.0238 21 13C21 17.9706 16.9706 22 12 22C9.61104 22 7.34826 21.3235 5.67148 19.8034C3.97815 18.2682 3 15.9788 3 13V11.1274C3 11.0436 3.0966 10.9975 3.16067 11.0515C4.0577 11.8088 4.81234 12.7513 6.5 13.5C6.60999 13.5488 4.67708 10.5166 7.5 7.32401C9.07506 5.54268 9.34354 4.35621 9.72265 2.06178C9.73401 1.99303 9.81053 1.95581 9.87116 1.99016C10.6136 2.41069 11.3579 2.81407 12.0149 3.36551ZM10.762 15.8457C10.8215 15.9068 10.7837 16.0093 10.6985 16.0145C10.2539 16.0415 9.21738 16.0889 8.5 16C7.25188 15.8452 6.23496 15.5145 5.3821 15.075C5.30617 15.0358 5.2179 15.102 5.23759 15.1851C5.56236 16.5562 6.19889 17.5819 7.01481 18.3216C8.23346 19.4265 9.97068 20 12 20C15.866 20 19 16.866 19 13C19 11.4648 18.4386 9.98751 17.8517 8.87801C17.8128 8.80445 17.7065 8.80955 17.6723 8.88542C16.7849 10.8541 15.4087 12.4898 13.8988 14.0147C13.8401 14.074 13.7392 14.0392 13.7292 13.9564C13.5614 12.5604 13.4004 11.1654 13.1308 9.78434C12.8013 8.09653 12.3631 6.46327 11.0984 5.23C11.0495 5.18234 10.9685 5.19866 10.9406 5.26095C10.3094 6.66713 10.0296 7.48241 8.99829 8.64881C6.84893 11.0796 9.10813 14.1469 10.762 15.8457Z"/>
</svg>
