<svg width="24" height="24" viewBox="0 0 24 24" xmlns="http://www.w3.org/2000/svg">
  <path fill-rule="evenodd" clip-rule="evenodd" d="M8.43112 11.7829C8.24964 11.8723 8.24964 12.1277 8.43112 12.2171C8.6756 12.3376 8.93907 12.4619 9.21865 12.5862C10.8502 13.3113 12.9516 14 15 14H19.75C19.8881 14 20 13.8881 20 13.75V10.25C20 10.1119 19.8881 10 19.75 10H15C12.9516 10 10.8502 10.6887 9.21865 11.4138C8.93907 11.5381 8.6756 11.6624 8.43112 11.7829ZM15 8H21.75C21.8881 8 22 8.11193 22 8.25V15.75C22 15.8881 21.8881 16 21.75 16H15C11.0676 16 7.67083 14.1218 4.37371 12.2162C4.20732 12.1201 4.20732 11.8799 4.37371 11.7838C7.67083 9.87821 11.0676 8 15 8Z"/>
  <path d="M4 4L5.5 7.5L9 2V6.5C9 6.5 9.55925 5.83281 10 5.5C10.8392 4.86635 12.5 4.5 12.5 4.5L11 6.5C11 6.5 8.65903 7.38977 7.5 8C5.09969 9.26377 2 11 2 11L4 4Z"/>
  <path d="M4 20L5.5 16.5L9 22V17.5C9 17.5 9.55925 18.1672 10 18.5C10.8392 19.1336 12.5 19.5 12.5 19.5L11 17.5C11 17.5 8.65903 16.6102 7.5 16C5.09969 14.7362 2 13 2 13L4 20Z"/>
</svg>
