<svg width="24" height="24" viewBox="0 0 24 24" xmlns="http://www.w3.org/2000/svg">
  <path fill-rule="evenodd" clip-rule="evenodd" d="M2 5C2 3.34315 3.34315 2 5 2H14V4H7.5C8 4.5 8 6 8 6V18.5C8 19.3284 8.67157 20 9.5 20C10.3284 20 11 19.3284 11 18.5V16H18V13H20V16H21.5C21.7761 16 22 16.2239 22 16.5V18C22 20.2091 20.2091 22 18 22H10C7.79086 22 6 20.2091 6 18V8H2.5C2.22386 8 2 7.77614 2 7.5V5ZM4.66667 4C5.40305 4 6 4.59695 6 5.33333V6H4V4.66667C4 4.29848 4.29848 4 4.66667 4ZM12.5 20H18C19.1046 20 20 19.1046 20 18H13C13 18 13 19.5 12.5 20Z"/>
  <path fill-rule="evenodd" clip-rule="evenodd" d="M15.6516 2.88388C15.4494 3.08608 15.4494 3.41392 15.6516 3.61612L16.3838 4.34835C16.586 4.55055 16.9138 4.55055 17.116 4.34835L17.8483 3.61612C18.0505 3.41392 18.0505 3.08608 17.8483 2.88388L17.116 2.15165C16.9138 1.94945 16.586 1.94945 16.3838 2.15165L15.6516 2.88388ZM18.6429 6.59509C18.4523 6.4045 18.4523 6.0955 18.6429 5.90491L19.9048 4.64294C20.0954 4.45235 20.4044 4.45235 20.595 4.64294L21.857 5.90491C22.0476 6.0955 22.0476 6.4045 21.857 6.5951L20.595 7.85706C20.4044 8.04765 20.0954 8.04765 19.9048 7.85706L18.6429 6.59509ZM14.9627 9.91594C14.5452 9.85152 13.5095 9.65596 13.2071 9.35355L13.1464 9.29289C12.9512 9.09763 12.9512 8.78104 13.1464 8.58578L13.2071 8.52512C13.5095 8.22272 14.5452 8.02715 14.9627 7.96273C15.0271 7.54523 15.2227 6.50951 15.5251 6.20711L15.5857 6.14645C15.781 5.95118 16.0976 5.95118 16.2929 6.14645L16.3535 6.20711C16.6559 6.50951 16.8514 7.54524 16.9159 7.96273C17.3334 8.02715 18.2833 8.22272 18.5857 8.52512L18.6464 8.58578C18.8416 8.78105 18.8416 9.09763 18.6464 9.29289L18.5857 9.35355C18.2833 9.65596 17.3334 9.85152 16.9159 9.91594C16.8514 10.3334 16.6559 11.2834 16.3535 11.5858L16.2928 11.6464C16.0976 11.8417 15.781 11.8417 15.5857 11.6464L15.5251 11.5858C15.2226 11.2834 15.0271 10.3334 14.9627 9.91594Z"/>
</svg>
